<mxfile host="app.diagrams.net" modified="2023-11-22T01:37:53.908Z" agent="Mozilla/5.0 (Windows NT 10.0; Win64; x64) AppleWebKit/537.36 (KHTML, like Gecko) Chrome/119.0.0.0 Safari/537.36" etag="XImEzeW2SBqYROhLzE5H" version="22.1.3" type="github">
  <diagram name="第 1 页" id="aA_uW0eg3kEJU7qytOSy">
    <mxGraphModel dx="2261" dy="790" grid="1" gridSize="10" guides="1" tooltips="1" connect="1" arrows="1" fold="1" page="1" pageScale="1" pageWidth="827" pageHeight="1169" math="0" shadow="0">
      <root>
        <mxCell id="0" />
        <mxCell id="1" parent="0" />
        <mxCell id="AnH1oupO0DnIHsFvmvpk-1" value="&lt;font style=&quot;font-size: 18px;&quot;&gt;[XXXX]新程式&lt;/font&gt;" style="rounded=1;whiteSpace=wrap;html=1;" vertex="1" parent="1">
          <mxGeometry x="-20" y="30" width="120" height="60" as="geometry" />
        </mxCell>
        <mxCell id="AnH1oupO0DnIHsFvmvpk-2" value="&lt;font style=&quot;font-size: 18px;&quot;&gt;查詢&lt;/font&gt;" style="rounded=0;whiteSpace=wrap;html=1;" vertex="1" parent="1">
          <mxGeometry x="80" y="115" width="80" height="50" as="geometry" />
        </mxCell>
        <mxCell id="AnH1oupO0DnIHsFvmvpk-3" value="&lt;font style=&quot;font-size: 18px;&quot;&gt;輸入一筆&lt;br&gt;轉入帳號+&lt;br&gt;選好通路&lt;/font&gt;" style="shape=parallelogram;perimeter=parallelogramPerimeter;whiteSpace=wrap;html=1;fixedSize=1;" vertex="1" parent="1">
          <mxGeometry x="200" y="100" width="110" height="80" as="geometry" />
        </mxCell>
        <mxCell id="AnH1oupO0DnIHsFvmvpk-4" value="" style="endArrow=classic;html=1;rounded=0;exitX=1;exitY=0.5;exitDx=0;exitDy=0;" edge="1" parent="1" source="AnH1oupO0DnIHsFvmvpk-2" target="AnH1oupO0DnIHsFvmvpk-3">
          <mxGeometry width="50" height="50" relative="1" as="geometry">
            <mxPoint x="390" y="340" as="sourcePoint" />
            <mxPoint x="440" y="290" as="targetPoint" />
          </mxGeometry>
        </mxCell>
        <mxCell id="AnH1oupO0DnIHsFvmvpk-5" value="&lt;font style=&quot;font-size: 18px;&quot;&gt;&amp;nbsp; &amp;nbsp;URL1 檔案&lt;br&gt;&lt;br&gt;&amp;nbsp; &amp;nbsp;轉入帳號&lt;br&gt;&amp;nbsp; &amp;nbsp;8120000000123456789&lt;/font&gt;" style="shape=note;whiteSpace=wrap;html=1;backgroundOutline=1;darkOpacity=0.05;align=left;" vertex="1" parent="1">
          <mxGeometry x="380" y="85" width="270" height="110" as="geometry" />
        </mxCell>
        <mxCell id="AnH1oupO0DnIHsFvmvpk-6" value="" style="endArrow=classic;html=1;rounded=0;exitX=1;exitY=0.5;exitDx=0;exitDy=0;" edge="1" parent="1" source="AnH1oupO0DnIHsFvmvpk-3" target="AnH1oupO0DnIHsFvmvpk-5">
          <mxGeometry width="50" height="50" relative="1" as="geometry">
            <mxPoint x="390" y="330" as="sourcePoint" />
            <mxPoint x="440" y="280" as="targetPoint" />
          </mxGeometry>
        </mxCell>
        <mxCell id="AnH1oupO0DnIHsFvmvpk-7" value="&lt;font style=&quot;font-size: 18px;&quot;&gt;產出&lt;/font&gt;" style="text;html=1;align=center;verticalAlign=middle;resizable=0;points=[];autosize=1;strokeColor=none;fillColor=none;" vertex="1" parent="1">
          <mxGeometry x="313" y="104" width="60" height="40" as="geometry" />
        </mxCell>
        <mxCell id="AnH1oupO0DnIHsFvmvpk-10" value="&lt;span style=&quot;font-size: 18px;&quot;&gt;API到財金&lt;/span&gt;" style="shape=parallelogram;perimeter=parallelogramPerimeter;whiteSpace=wrap;html=1;fixedSize=1;" vertex="1" parent="1">
          <mxGeometry x="440" y="450" width="150" height="60" as="geometry" />
        </mxCell>
        <mxCell id="AnH1oupO0DnIHsFvmvpk-15" value="&lt;font style=&quot;font-size: 18px;&quot;&gt;財金公司&lt;/font&gt;" style="rounded=0;whiteSpace=wrap;html=1;" vertex="1" parent="1">
          <mxGeometry x="462.5" y="590" width="105" height="50" as="geometry" />
        </mxCell>
        <mxCell id="AnH1oupO0DnIHsFvmvpk-16" value="&lt;span style=&quot;font-size: 18px;&quot;&gt;&amp;nbsp; &amp;nbsp;財金公司&lt;br&gt;&amp;nbsp; &amp;nbsp;回傳的API內容&lt;/span&gt;" style="shape=note;whiteSpace=wrap;html=1;backgroundOutline=1;darkOpacity=0.05;align=left;" vertex="1" parent="1">
          <mxGeometry x="630" y="470" width="150" height="100" as="geometry" />
        </mxCell>
        <mxCell id="AnH1oupO0DnIHsFvmvpk-17" value="" style="endArrow=classic;html=1;rounded=0;exitX=1;exitY=0.5;exitDx=0;exitDy=0;entryX=0.5;entryY=1;entryDx=0;entryDy=0;entryPerimeter=0;" edge="1" parent="1" source="AnH1oupO0DnIHsFvmvpk-15" target="AnH1oupO0DnIHsFvmvpk-16">
          <mxGeometry width="50" height="50" relative="1" as="geometry">
            <mxPoint x="390" y="540" as="sourcePoint" />
            <mxPoint x="440" y="490" as="targetPoint" />
            <Array as="points">
              <mxPoint x="705" y="615" />
            </Array>
          </mxGeometry>
        </mxCell>
        <mxCell id="AnH1oupO0DnIHsFvmvpk-18" value="" style="endArrow=classic;html=1;rounded=0;exitX=0.5;exitY=1;exitDx=0;exitDy=0;" edge="1" parent="1" source="AnH1oupO0DnIHsFvmvpk-10" target="AnH1oupO0DnIHsFvmvpk-15">
          <mxGeometry width="50" height="50" relative="1" as="geometry">
            <mxPoint x="390" y="540" as="sourcePoint" />
            <mxPoint x="440" y="490" as="targetPoint" />
          </mxGeometry>
        </mxCell>
        <mxCell id="AnH1oupO0DnIHsFvmvpk-22" value="&lt;font style=&quot;font-size: 18px;&quot;&gt;宥稜&lt;/font&gt;" style="rounded=0;whiteSpace=wrap;html=1;" vertex="1" parent="1">
          <mxGeometry x="475" y="350" width="80" height="50" as="geometry" />
        </mxCell>
        <mxCell id="AnH1oupO0DnIHsFvmvpk-24" value="" style="endArrow=classic;html=1;rounded=0;exitX=0.5;exitY=1;exitDx=0;exitDy=0;entryX=0.5;entryY=0;entryDx=0;entryDy=0;" edge="1" parent="1" source="AnH1oupO0DnIHsFvmvpk-22" target="AnH1oupO0DnIHsFvmvpk-10">
          <mxGeometry width="50" height="50" relative="1" as="geometry">
            <mxPoint x="390" y="440" as="sourcePoint" />
            <mxPoint x="440" y="390" as="targetPoint" />
          </mxGeometry>
        </mxCell>
        <mxCell id="AnH1oupO0DnIHsFvmvpk-26" value="" style="endArrow=classic;html=1;rounded=0;exitX=0.5;exitY=1;exitDx=0;exitDy=0;exitPerimeter=0;" edge="1" parent="1" source="AnH1oupO0DnIHsFvmvpk-5" target="AnH1oupO0DnIHsFvmvpk-22">
          <mxGeometry width="50" height="50" relative="1" as="geometry">
            <mxPoint x="515" y="300" as="sourcePoint" />
            <mxPoint x="440" y="390" as="targetPoint" />
          </mxGeometry>
        </mxCell>
        <mxCell id="AnH1oupO0DnIHsFvmvpk-27" value="" style="endArrow=classic;html=1;rounded=0;exitX=0.5;exitY=0;exitDx=0;exitDy=0;exitPerimeter=0;entryX=1;entryY=0.5;entryDx=0;entryDy=0;" edge="1" parent="1" source="AnH1oupO0DnIHsFvmvpk-16" target="AnH1oupO0DnIHsFvmvpk-22">
          <mxGeometry width="50" height="50" relative="1" as="geometry">
            <mxPoint x="390" y="440" as="sourcePoint" />
            <mxPoint x="440" y="390" as="targetPoint" />
            <Array as="points">
              <mxPoint x="705" y="375" />
            </Array>
          </mxGeometry>
        </mxCell>
        <mxCell id="AnH1oupO0DnIHsFvmvpk-28" value="&lt;font style=&quot;font-size: 18px;&quot;&gt;&amp;nbsp; &amp;nbsp;URL2 檔案&lt;br&gt;&lt;br&gt;&amp;nbsp; &amp;nbsp;轉入帳號&amp;nbsp; &amp;nbsp; &amp;nbsp; &amp;nbsp; &amp;nbsp; &amp;nbsp; &amp;nbsp; &amp;nbsp; &amp;nbsp; &amp;nbsp; &amp;nbsp; &amp;nbsp;通路 2年count&amp;nbsp; 30天count&lt;br&gt;&amp;nbsp; &amp;nbsp;8120000000123456789&amp;nbsp; A&amp;nbsp; &amp;nbsp; &amp;nbsp; XX15&amp;nbsp; &amp;nbsp; &amp;nbsp; &amp;nbsp; XX07&lt;br&gt;&amp;nbsp; &amp;nbsp;8120000000123456789&amp;nbsp; B&amp;nbsp; &amp;nbsp; &amp;nbsp; XX12&amp;nbsp; &amp;nbsp; &amp;nbsp; &amp;nbsp; XX02&lt;br&gt;&amp;nbsp; &amp;nbsp;8120000000123456789&amp;nbsp; C&amp;nbsp; &amp;nbsp; &amp;nbsp; XX12&amp;nbsp; &amp;nbsp; &amp;nbsp; &amp;nbsp; XX02&lt;br&gt;&lt;/font&gt;" style="shape=note;whiteSpace=wrap;html=1;backgroundOutline=1;darkOpacity=0.05;align=left;" vertex="1" parent="1">
          <mxGeometry x="-20" y="300" width="420" height="140" as="geometry" />
        </mxCell>
        <mxCell id="AnH1oupO0DnIHsFvmvpk-30" value="" style="endArrow=classic;html=1;rounded=0;exitX=0;exitY=0.5;exitDx=0;exitDy=0;" edge="1" parent="1" source="AnH1oupO0DnIHsFvmvpk-22">
          <mxGeometry width="50" height="50" relative="1" as="geometry">
            <mxPoint x="390" y="440" as="sourcePoint" />
            <mxPoint x="400" y="375" as="targetPoint" />
          </mxGeometry>
        </mxCell>
        <mxCell id="AnH1oupO0DnIHsFvmvpk-31" value="&lt;font style=&quot;font-size: 18px;&quot;&gt;產出&lt;/font&gt;" style="text;html=1;align=center;verticalAlign=middle;resizable=0;points=[];autosize=1;strokeColor=none;fillColor=none;" vertex="1" parent="1">
          <mxGeometry x="408" y="340" width="60" height="40" as="geometry" />
        </mxCell>
        <mxCell id="AnH1oupO0DnIHsFvmvpk-32" value="" style="endArrow=classic;html=1;rounded=0;exitX=0.5;exitY=0;exitDx=0;exitDy=0;exitPerimeter=0;entryX=0.5;entryY=1;entryDx=0;entryDy=0;" edge="1" parent="1" source="AnH1oupO0DnIHsFvmvpk-28" target="AnH1oupO0DnIHsFvmvpk-2">
          <mxGeometry width="50" height="50" relative="1" as="geometry">
            <mxPoint x="160" y="250" as="sourcePoint" />
            <mxPoint x="230" y="210" as="targetPoint" />
          </mxGeometry>
        </mxCell>
        <mxCell id="AnH1oupO0DnIHsFvmvpk-33" value="&lt;font style=&quot;font-size: 18px;&quot;&gt;回傳&lt;/font&gt;" style="text;html=1;align=center;verticalAlign=middle;resizable=0;points=[];autosize=1;strokeColor=none;fillColor=none;" vertex="1" parent="1">
          <mxGeometry x="170" y="220" width="60" height="40" as="geometry" />
        </mxCell>
        <mxCell id="AnH1oupO0DnIHsFvmvpk-34" value="&lt;font style=&quot;font-size: 18px;&quot;&gt;傳給&lt;/font&gt;" style="text;html=1;align=center;verticalAlign=middle;resizable=0;points=[];autosize=1;strokeColor=none;fillColor=none;" vertex="1" parent="1">
          <mxGeometry x="510" y="250" width="60" height="40" as="geometry" />
        </mxCell>
      </root>
    </mxGraphModel>
  </diagram>
</mxfile>
